<svg width="72" height="72" viewBox="0 0 72 72" fill="none" xmlns="http://www.w3.org/2000/svg">
<path fill-rule="evenodd" clip-rule="evenodd" d="M45.7642 14C55.3811 15.5255 60.9225 27.2564 61.2543 31.2683C62.3651 30.0123 62.7227 27.937 62.327 25.0427C64.3655 26.7653 64.9562 27.8955 64.9958 31.9993L64.998 32.4676L65 57C61.6268 55.7592 57.4084 54.742 52.6161 54.0315L52.6154 26.8506C52.6154 22.433 49.0911 16.4457 45.7642 14ZM8.00119 24.7853C13.863 36.7594 17.9566 43.7233 20.2817 45.6767L20.281 54.0413C15.5334 54.7487 11.3516 55.7573 8 56.9862L8.00119 24.7853ZM37.5394 14.3894C36.2299 18.941 35.5248 23.6148 35.4242 28.4107L35.4115 29.6123L35.412 52.9073C30.8875 52.9465 26.5657 53.2341 22.5865 53.727L22.5871 26.4655C22.5871 22.0174 20.8253 18.9392 18.6997 16.5544C21.2914 17.3832 23.2034 18.9548 24.4363 21.2692C26.2853 24.7409 25.1676 33.835 28.5862 33.835C32.0049 33.835 32.0081 28.2027 32.3965 23.929C32.6555 21.0799 34.3699 17.9001 37.5394 14.3894ZM40.6974 21.3226C40.6451 28.0466 41.6163 31.4086 43.6106 31.4086C45.6051 31.4086 46.1714 28.351 45.31 22.2354C47.9404 25.362 49.2556 28.0679 49.2556 30.3529L49.2561 53.5947C45.7414 53.1997 41.9774 52.9628 38.0563 52.9126V29.4907C38.0563 25.8776 38.9366 23.1549 40.6974 21.3226ZM12.6823 17.1662C16.3602 19.3071 18.4644 21.7237 18.9948 24.4163L19.0573 24.7853L15.0833 32.9191C15.5156 28.5591 14.7153 23.3081 12.6823 17.1662Z" fill="#F8F8F8"/>
</svg>
