<svg width="72" height="72" viewBox="0 0 72 72" fill="none" xmlns="http://www.w3.org/2000/svg">
<path fill-rule="evenodd" clip-rule="evenodd" d="M58.8253 0L48.9446 19.5112C52.1634 22.5578 54.17 26.8632 54.17 31.6355C54.17 32.6713 54.0754 33.6852 53.8946 34.6688L63 41.997L52.1638 39.5701C49.7246 44.0695 45.2753 47.3288 40.0145 48.1536L37.3838 72L35.2151 48.2195C33.6478 48.0181 32.1483 47.6013 30.7474 47.0001L24.6727 51.0776L27.3265 45.0254C23.4109 42.102 20.8198 37.5139 20.611 32.3153L10 28.2009L21.2462 27.0165C21.9242 24.6613 23.1077 22.5191 24.6723 20.7136L24.6727 16.5244L29.6956 16.7665C31.0923 16.0484 32.6032 15.5198 34.1941 15.2149H34.0266L36.6043 1.53565L39.1445 15.0042C41.0976 15.207 42.9512 15.7434 44.6467 16.5553L58.8253 0ZM37.3838 23.8318C33.0573 23.8318 29.5502 27.3257 29.5502 31.6355C29.5502 35.9454 33.0573 39.4393 37.3838 39.4393C41.7101 39.4393 45.2174 35.9454 45.2174 31.6355C45.2174 27.3257 41.7101 23.8318 37.3838 23.8318Z" fill="#F8F8F8"/>
</svg>
