<svg width="72" height="72" viewBox="0 0 72 72" fill="none" xmlns="http://www.w3.org/2000/svg">
<path fill-rule="evenodd" clip-rule="evenodd" d="M32.9578 3C30.6832 11.4565 27.6378 27.4144 35.3122 30.6382C40.4288 32.7876 41.4333 26.9053 38.3265 12.9918C43.4243 20.3133 45.6158 27.3754 44.9011 34.1782C45.8487 34.7211 46.7437 35.349 47.5748 36.0512C48.798 35.3138 49.4094 33.901 49.4094 31.8149C50.7331 34.2424 51.0577 36.6461 50.3829 39.0259C52.653 42.0531 54 45.8222 54 49.9074C54 59.8997 45.9411 68 36 68C26.0589 68 18 59.8997 18 49.9074C18 47.0276 18.6694 44.305 19.8604 41.888C18.6897 39.1612 19.0006 35.4107 20.794 30.6382C20.794 34.9353 21.6023 35.9691 22.5568 36.5771C22.8257 36.7482 23.1463 36.8472 23.5186 36.8738C24.0601 36.3471 24.6331 35.8579 25.2352 35.4056C24.2905 22.9418 26.8643 12.1394 32.9578 3ZM36 41.3374C31.291 41.3374 27.4737 45.1743 27.4737 49.9074C27.4737 53.5931 29.7883 56.7353 33.0363 57.9456C33.3493 54.9813 34.5763 52.9449 36.7181 51.833C36.7181 54.2085 36.4089 56.6261 38.0257 58.2334C41.7587 57.3182 44.5263 53.9376 44.5263 49.9074C44.5263 45.1743 40.709 41.3374 36 41.3374Z" fill="#F8F8F8"/>
</svg>
