<svg width="72" height="72" viewBox="0 0 72 72" fill="none" xmlns="http://www.w3.org/2000/svg">
<path fill-rule="evenodd" clip-rule="evenodd" d="M16.439 10.03C13.9533 24.5257 16.8036 45.4945 34.5833 61C26.017 60.5963 19.1802 59.4018 14.0733 57.4166C17.1923 55.42 18.7517 54.4219 18.7517 54.4219C0.726166 42.5954 0.886015 27.7607 2.91994 23.9241C4.85595 28.0753 6.896 30.5902 9.04008 31.4689C8.38126 22.2321 10.8475 15.0858 16.439 10.03ZM56.561 10C62.1525 15.0558 64.6187 22.202 63.9599 31.4389C66.1041 30.5604 68.144 28.0453 70.08 23.8943C72.114 27.7306 72.2738 42.5654 54.2484 54.3919C54.2484 54.3919 55.8078 55.3902 58.9268 57.3866C53.8198 59.3718 46.983 60.5663 38.4167 60.97C56.1965 45.4645 59.0467 24.4957 56.561 10ZM47.8994 35.0605C48.7893 39.9374 43.8065 45.306 36.5019 49.6421L36.5021 49.6434H36.5C29.1956 45.306 24.213 39.9374 25.1027 35.0605C25.9925 30.1828 34.0419 28.5434 36.5021 35.0605L36.5 35.0584L36.6451 34.7002C39.2616 28.6065 47.0264 30.275 47.8994 35.0605ZM36.5 19.439C38.6172 19.439 40.3333 21.1293 40.3333 23.2145C40.3333 25.2996 38.6172 26.99 36.5 26.99C34.3829 26.99 32.6667 25.2996 32.6667 23.2145C32.6667 21.1293 34.3829 19.439 36.5 19.439Z" fill="#F8F8F8"/>
</svg>
